# xmcd CD database file
#
# Track frame offsets:
#	187
#	9515
#	30092
#	59297
#	91500
#	134375
#	180400
#
# Disc length: 2502 seconds
#
# Revision: 0
# Processed by: cddbd v1.5.1PL0 Copyright (c) Steve Scherf et al.
# Submitted via: CDex 1.51
#
DISCID=4209c407
DTITLE=カルメン・マキ&OZ - 閉ざされた街
DYEAR=1976
DGENRE=Rock
TTITLE0=Introduction
TTITLE1=崩壊の前日
TTITLE2=振り子のない時計
TTITLE3=火の鳥
TTITLE4=Lost Love
TTITLE5=閉ざされた街
TTITLE6=Epilogue
EXTD=YEAR: 1976
EXTT0=
EXTT1=
EXTT2=
EXTT3=
EXTT4=
EXTT5=
EXTT6=
PLAYORDER=
